<svg width="155" height="35" viewBox="0 0 155 35" fill="none" xmlns="http://www.w3.org/2000/svg">
<path d="M27.0619 29.8V35H0.211914V0H5.61191V29.8H27.0619Z" fill="#011627"/>
<path d="M68.9846 35L65.1346 26.65H46.1846L42.3346 35H36.6846L52.7846 0H58.8846L74.8846 35H68.9846ZM52.9346 11.95L48.5846 21.45H62.7846L58.2846 11.75C57.8179 10.7167 57.3679 9.7 56.9346 8.7C56.5012 7.7 56.0846 6.63333 55.6846 5.5C55.2179 6.66667 54.7512 7.78333 54.2846 8.85C53.8512 9.88333 53.4012 10.9167 52.9346 11.95Z" fill="#011627"/>
<path d="M114.692 0V3.9L91.3924 29.75H115.242V35H82.9924V31.05L106.292 5.25H84.2924V0H114.692Z" fill="#011627"/>
<path d="M127.507 0H154.607V5.2H132.907V14.45H151.857V19.65H132.907V29.8H154.607V35H127.507V0Z" fill="#011627"/>
<path d="M8.31543 12.32L16.0154 20.02L23.7154 27.72H8.31543V12.32Z" fill="#C4C4C4"/>
<path d="M102.7 21.7L108.885 15.28L109 28L96 28L102.7 21.7Z" fill="#C4C4C4"/>
</svg>
