<svg width="155" height="35" viewBox="0 0 155 35" fill="none" xmlns="http://www.w3.org/2000/svg">
<path d="M26.85 29.8V35H0V0H5.4V29.8H26.85Z" fill="white"/>
<path d="M68.7727 35L64.9227 26.65H45.9727L42.1227 35H36.4727L52.5727 0H58.6727L74.6727 35H68.7727ZM52.7227 11.95L48.3727 21.45H62.5727L58.0727 11.75C57.606 10.7167 57.156 9.7 56.7226 8.7C56.2893 7.7 55.8727 6.63333 55.4727 5.5C55.006 6.66667 54.5393 7.78333 54.0727 8.85C53.6393 9.88333 53.1893 10.9167 52.7227 11.95Z" fill="white"/>
<path d="M114.48 0V3.9L91.1805 29.75H115.03V35H82.7805V31.05L106.08 5.25H84.0805V0H114.48Z" fill="white"/>
<path d="M127.295 0H154.395V5.2H132.695V14.45H151.645V19.65H132.695V29.8H154.395V35H127.295V0Z" fill="white"/>
<path d="M8.10352 12.3198L15.8035 20.0198L23.5035 27.7198H8.10352V12.3198Z" fill="white" fill-opacity="0.53"/>
<path d="M102.488 21.6998L108.673 15.2798L108.788 27.9998L95.7881 27.9998L102.488 21.6998Z" fill="white" fill-opacity="0.53"/>
</svg>
